<svg width="415" height="54" viewBox="0 0 415 54" fill="none" xmlns="http://www.w3.org/2000/svg">
<path d="M28.336 7.476C24.6267 9.452 21.264 12.0867 18.248 15.38C18.6293 16.5933 19.184 17.8933 19.912 19.28C20.64 20.632 21.4027 22.088 22.2 23.648C24.3147 27.6 25.8227 30.98 26.724 33.788L22.356 40.756C15.8733 39.0573 10.1187 36.6827 5.092 33.632C3.532 32.6613 1.98933 31.656 0.464 30.616L3.948 24.272C9.21733 27.912 14.036 30.5813 18.404 32.28C17.572 30.2347 16.324 27.7733 14.66 24.896C12.996 21.984 11.7827 19.8 11.02 18.344C10.292 16.8533 9.72 15.38 9.304 13.924C11.4533 11.2547 14.192 8.62 17.52 6.02C20.5707 3.628 23.4827 1.77333 26.256 0.455997L36.292 7.164C35.6333 10.1107 34.1253 13.768 31.768 18.136C31.1787 19.2453 30.6587 20.1293 30.208 20.788L23.968 17.2C25.3547 14.9813 26.8107 11.74 28.336 7.476ZM46.2918 27.964C44.6625 27.964 43.3798 27.8427 42.4438 27.6C41.8892 28.952 41.5425 30.6333 41.4038 32.644C47.3665 32.2973 53.1212 30.9627 58.6678 28.64C60.5398 27.8773 62.3425 26.976 64.0758 25.936L65.1678 31.188C61.9438 33.2333 58.1305 35.036 53.7278 36.596C49.0478 38.26 44.6278 39.196 40.4678 39.404L34.0198 33.424C34.0198 28.64 35.3198 24.272 37.9198 20.32C39.7918 17.5813 41.9065 15.4147 44.2638 13.82C46.6558 12.2253 48.9438 11.0813 51.1278 10.388L59.9158 17.668C59.0492 21.2733 57.4025 23.8907 54.9758 25.52C52.5492 27.1493 49.6545 27.964 46.2918 27.964ZM44.6278 22.92C46.6385 22.92 48.3892 22.3653 49.8798 21.256C51.6132 19.9387 52.4798 18.1013 52.4798 15.744C48.9785 17.6507 46.3612 20.0427 44.6278 22.92ZM65.7963 14.704C67.4603 12.4507 69.5403 10.1107 72.0363 7.684L76.8723 11.428C76.491 13.0227 76.1616 14.184 75.8843 14.912C80.3563 14.4267 83.5803 13.9413 85.5563 13.456C87.5323 12.9707 89.2483 12.5373 90.7043 12.156L92.1603 18.344C90.739 18.76 89.2483 19.124 87.6883 19.436C85.2963 23.2147 83.303 27.2187 81.7083 31.448C87.463 29.472 91.7096 27.6347 94.4483 25.936L95.5923 31.188C92.403 33.268 88.2256 35.4 83.0603 37.584C81.3963 38.2773 79.8016 38.884 78.2763 39.404L72.7643 33.892C75.0176 28.7267 77.427 24.272 79.9923 20.528C77.5656 20.736 75.4163 20.8747 73.5443 20.944C72.9896 21.984 71.499 24.584 69.0723 28.744L65.2243 31.188L60.2843 28.276C63.1616 25.156 65.103 22.972 66.1083 21.724C67.1136 20.476 67.9803 19.4013 68.7083 18.5C67.703 17.3907 66.7323 16.1253 65.7963 14.704ZM87.6875 41.744C89.8368 39.8027 92.3328 38.1213 95.1755 36.7L92.2635 33.944C92.2635 31.2053 92.7142 28.536 93.6155 25.936C94.4822 23.336 95.7648 21.0133 97.4635 18.968C99.1622 16.888 101.242 15.172 103.704 13.82C106.165 12.468 108.973 11.6533 112.128 11.376L115.04 16.264C116.114 14.704 117.12 13.3693 118.056 12.26L123.1 16.628C121.089 19.2973 118.94 22.6773 116.652 26.768C115.958 28.016 115.352 29.2293 114.832 30.408C120.136 28.8827 124.088 27.392 126.688 25.936L127.78 31.188C124.937 33.3027 121.852 35.192 118.524 36.856C117.31 37.48 116.253 37.948 115.352 38.26L113.116 35.764C111.764 41.796 109.822 46.4933 107.292 49.856C106.425 51.0347 105.472 52.1787 104.432 53.288C100.514 53.184 96.3368 52.5773 91.8995 51.468C90.4782 51.1213 89.1608 50.74 87.9475 50.324L87.6875 41.744ZM99.5435 32.644C101.589 32.0547 103.149 31.448 104.224 30.824C106.234 29.576 107.968 27.9987 109.424 26.092C110.464 23.804 111.226 21.152 111.712 18.136C108.176 18.4827 105.246 20.008 102.924 22.712C100.67 25.3813 99.5435 28.692 99.5435 32.644ZM92.9395 45.54C96.3368 46.3373 98.9715 46.736 100.844 46.736C102.993 44.8987 104.761 41.9 106.148 37.74C100.705 39.924 96.3022 42.524 92.9395 45.54ZM139.07 8.568C138.272 7.736 137.874 6.73067 137.874 5.552C137.874 4.37333 138.272 3.38533 139.07 2.588C139.902 1.756 140.907 1.34 142.086 1.34C143.264 1.34 144.252 1.756 145.05 2.588C145.882 3.38533 146.298 4.37333 146.298 5.552C146.298 6.73067 145.882 7.736 145.05 8.568C144.252 9.36533 143.264 9.764 142.086 9.764C140.907 9.764 139.902 9.36533 139.07 8.568ZM131.218 31.448C134.754 30.3733 139 28.536 143.958 25.936L145.05 31.188C141.687 33.372 137.631 35.504 132.882 37.584C131.287 38.2773 129.727 38.884 128.202 39.404L122.222 33.892C123.92 29.2467 126.971 23.4573 131.374 16.524C132.691 14.444 133.974 12.624 135.222 11.064L140.37 14.86C137.839 18.3267 135.378 22.504 132.986 27.392C132.292 28.848 131.703 30.2 131.218 31.448ZM162.471 32.124C159.143 35.972 154.758 38.3987 149.315 39.404L141.931 33.216C141.931 29.888 142.59 26.5947 143.907 23.336C145.571 19.2453 148.31 15.9347 152.123 13.404C154.758 11.636 157.618 10.544 160.703 10.128L168.971 17.2C168.382 20.944 167.377 24.2027 165.955 26.976C168.451 26.8373 171.277 26.4907 174.431 25.936L175.575 31.188C171.069 33.06 167.533 34.3253 164.967 34.984L162.471 32.124ZM148.899 32.332C152.851 31.4307 156.145 28.9867 158.779 25C159.889 23.3013 160.686 21.672 161.171 20.112C161.657 18.552 161.917 17.304 161.951 16.368C159.143 16.7493 156.474 18.24 153.943 20.84C150.789 24.064 149.107 27.8947 148.899 32.332ZM190.564 32.956C192.054 26.5773 195.157 20.5627 199.872 14.912C204.794 9.01867 210.601 4.668 217.292 1.86L226.756 8.776C226.028 11.3067 224.797 14.0453 223.064 16.992L216.668 13.456C217.257 12.2773 217.846 10.7173 218.436 8.776C211.225 12.4853 205.904 17.564 202.472 24.012C201.328 26.1613 200.478 28.3973 199.924 30.72C204.153 30.096 207.758 29.3333 210.74 28.432C211.502 26.9067 212.369 25.0347 213.34 22.816L220.308 26.404C216.633 33.6147 212.057 40.7213 206.58 47.724L201.016 42.68C203.546 39.456 205.28 37.1507 206.216 35.764C202.853 36.8733 199.456 37.636 196.024 38.052L190.564 32.956ZM241.835 34.724C239.097 36.8733 235.942 38.4333 232.371 39.404L225.923 33.424C225.923 30.6853 226.339 27.9987 227.171 25.364C228.003 22.7293 229.234 20.3547 230.863 18.24C232.493 16.1253 234.503 14.3747 236.895 12.988C239.322 11.5667 242.113 10.7173 245.267 10.44L248.699 15.692C249.115 15.0333 249.999 13.8893 251.351 12.26L256.447 16.628C253.015 21.1 250.173 25.884 247.919 30.98L247.763 31.084C249.774 30.564 252.131 29.68 254.835 28.432C257.539 27.1493 259.255 26.3173 259.983 25.936L261.127 31.188C259.082 32.6787 255.685 34.6027 250.935 36.96C249.063 37.896 247.365 38.6413 245.839 39.196L241.835 34.724ZM233.203 31.916C236.913 30.9107 240.293 28.4493 243.343 24.532C244.245 22.556 244.921 20.0947 245.371 17.148C241.801 17.4947 238.871 19.072 236.583 21.88C234.33 24.6533 233.203 27.9987 233.203 31.916ZM285.786 20.372C288.594 18.1187 291.714 16.0733 295.146 14.236L301.438 19.176C300.329 23.7867 298.492 27.756 295.926 31.084C299.289 29.94 303.206 28.224 307.678 25.936L308.77 31.188C307.349 32.124 305.182 33.32 302.27 34.776C297.278 37.2373 293.829 38.78 291.922 39.404L285.474 34.828C289.773 29.6627 292.304 25.468 293.066 22.244C289.426 24.012 285.994 26.0573 282.77 28.38C281.072 32.1933 278.974 35.868 276.478 39.404L270.498 35.296C272.162 33.0773 273.566 30.928 274.71 28.848C276.548 25.4507 277.674 22.7813 278.09 20.84C274.762 22.4 271.694 24.168 268.886 26.144C267.916 26.8027 266.893 27.5133 265.818 28.276C264.258 31.9507 262.889 35.66 261.71 39.404L255.522 35.4C256.701 31.4133 258.538 26.924 261.034 21.932C263.288 17.46 265.645 13.6813 268.106 10.596L273.358 14.392C272.11 16.0907 271.001 17.8413 270.03 19.644C273.185 17.044 276.565 14.7733 280.17 12.832L286.462 17.772L285.786 20.372ZM317.87 27.964C316.241 27.964 314.958 27.8427 314.022 27.6C313.467 28.952 313.121 30.6333 312.982 32.644C318.945 32.2973 324.699 30.9627 330.246 28.64C332.118 27.8773 333.921 26.976 335.654 25.936L336.746 31.188C333.522 33.2333 329.709 35.036 325.306 36.596C320.626 38.26 316.206 39.196 312.046 39.404L305.598 33.424C305.598 28.64 306.898 24.272 309.498 20.32C311.37 17.5813 313.485 15.4147 315.842 13.82C318.234 12.2253 320.522 11.0813 322.706 10.388L331.494 17.668C330.627 21.2733 328.981 23.8907 326.554 25.52C324.127 27.1493 321.233 27.964 317.87 27.964ZM316.206 22.92C318.217 22.92 319.967 22.3653 321.458 21.256C323.191 19.9387 324.058 18.1013 324.058 15.744C320.557 17.6507 317.939 20.0427 316.206 22.92ZM348.034 8.568C347.237 7.736 346.838 6.73067 346.838 5.552C346.838 4.37333 347.237 3.38533 348.034 2.588C348.866 1.756 349.872 1.34 351.05 1.34C352.229 1.34 353.217 1.756 354.014 2.588C354.846 3.38533 355.262 4.37333 355.262 5.552C355.262 6.73067 354.846 7.736 354.014 8.568C353.217 9.36533 352.229 9.764 351.05 9.764C349.872 9.764 348.866 9.36533 348.034 8.568ZM340.182 31.448C343.718 30.3733 347.965 28.536 352.922 25.936L354.014 31.188C350.652 33.372 346.596 35.504 341.846 37.584C340.252 38.2773 338.692 38.884 337.166 39.404L331.186 33.892C332.885 29.2467 335.936 23.4573 340.338 16.524C341.656 14.444 342.938 12.624 344.186 11.064L349.334 14.86C346.804 18.3267 344.342 22.504 341.95 27.392C341.257 28.848 340.668 30.2 340.182 31.448ZM354.64 14.704C356.304 12.4507 358.384 10.1107 360.88 7.684L365.716 11.428C365.335 13.0227 365.005 14.184 364.728 14.912C369.2 14.4267 372.424 13.9413 374.4 13.456C376.376 12.9707 378.092 12.5373 379.548 12.156L381.004 18.344C379.583 18.76 378.092 19.124 376.532 19.436C374.14 23.2147 372.147 27.2187 370.552 31.448C376.307 29.472 380.553 27.6347 383.292 25.936L384.436 31.188C381.247 33.268 377.069 35.4 371.904 37.584C370.24 38.2773 368.645 38.884 367.12 39.404L361.608 33.892C363.861 28.7267 366.271 24.272 368.836 20.528C366.409 20.736 364.26 20.8747 362.388 20.944C361.833 21.984 360.343 24.584 357.916 28.744L354.068 31.188L349.128 28.276C352.005 25.156 353.947 22.972 354.952 21.724C355.957 20.476 356.824 19.4013 357.552 18.5C356.547 17.3907 355.576 16.1253 354.64 14.704ZM401.803 32.124C398.475 35.972 394.09 38.3987 388.647 39.404L381.263 33.216C381.263 29.888 381.922 26.5947 383.239 23.336C384.903 19.2453 387.642 15.9347 391.455 13.404C394.09 11.636 396.95 10.544 400.035 10.128L408.303 17.2C407.714 20.944 406.709 24.2027 405.287 26.976C407.783 26.8373 410.609 26.4907 413.763 25.936L414.907 31.188C410.401 33.06 406.865 34.3253 404.299 34.984L401.803 32.124ZM388.231 32.332C392.183 31.4307 395.477 28.9867 398.111 25C399.221 23.3013 400.018 21.672 400.503 20.112C400.989 18.552 401.249 17.304 401.283 16.368C398.475 16.7493 395.806 18.24 393.275 20.84C390.121 24.064 388.439 27.8947 388.231 32.332Z" fill="black"/>
</svg>
